<?xml version="1.0" encoding="UTF-8"?>
<svg xmlns="http://www.w3.org/2000/svg" xmlns:xlink="http://www.w3.org/1999/xlink" width="25pt" height="25pt" viewBox="0 0 25 25" version="1.1">
<g id="surface1">
<path style=" stroke:none;fill-rule:nonzero;fill:rgb(100%,100%,100%);fill-opacity:1;" d="M 12.5 0.519531 C 5.59375 0.519531 0 6.019531 0 12.804688 C 0 18.230469 3.582031 22.835938 8.546875 24.457031 C 9.171875 24.574219 9.402344 24.195312 9.402344 23.867188 C 9.402344 23.574219 9.390625 22.804688 9.386719 21.777344 C 5.910156 22.519531 5.175781 20.132812 5.175781 20.132812 C 4.605469 18.714844 3.785156 18.335938 3.785156 18.335938 C 2.652344 17.574219 3.871094 17.589844 3.871094 17.589844 C 5.128906 17.675781 5.785156 18.855469 5.785156 18.855469 C 6.902344 20.730469 8.710938 20.191406 9.425781 19.875 C 9.539062 19.082031 9.863281 18.539062 10.21875 18.234375 C 7.441406 17.925781 4.523438 16.871094 4.523438 12.164062 C 4.523438 10.824219 5.007812 9.726562 5.8125 8.867188 C 5.671875 8.558594 5.25 7.308594 5.921875 5.617188 C 5.921875 5.617188 6.96875 5.289062 9.359375 6.875 C 10.359375 6.601562 11.421875 6.46875 12.484375 6.460938 C 13.546875 6.46875 14.609375 6.601562 15.609375 6.875 C 17.984375 5.289062 19.03125 5.617188 19.03125 5.617188 C 19.703125 7.308594 19.28125 8.558594 19.15625 8.867188 C 19.953125 9.726562 20.4375 10.824219 20.4375 12.164062 C 20.4375 16.882812 17.515625 17.921875 14.734375 18.222656 C 15.171875 18.589844 15.578125 19.34375 15.578125 20.496094 C 15.578125 22.140625 15.5625 23.460938 15.5625 23.859375 C 15.5625 24.179688 15.78125 24.566406 16.421875 24.441406 C 21.421875 22.832031 25 18.222656 25 12.804688 C 25 6.019531 19.402344 0.519531 12.5 0.519531 Z M 12.5 0.519531 "/>
</g>
</svg>
