<?xml version="1.0" encoding="UTF-8"?>
<svg xmlns="http://www.w3.org/2000/svg" xmlns:xlink="http://www.w3.org/1999/xlink" width="20pt" height="20pt" viewBox="0 0 20 20" version="1.1">
<g id="surface1">
<path style=" stroke:none;fill-rule:nonzero;fill:rgb(100%,100%,100%);fill-opacity:1;" d="M 20.320312 20.324219 L 20.324219 20.324219 L 20.324219 12.871094 C 20.324219 9.21875 19.539062 6.414062 15.273438 6.414062 C 13.226562 6.414062 11.851562 7.539062 11.289062 8.605469 L 11.234375 8.605469 L 11.234375 6.753906 L 7.1875 6.753906 L 7.1875 20.324219 L 11.398438 20.324219 L 11.398438 13.605469 C 11.398438 11.835938 11.734375 10.125 13.925781 10.125 C 16.082031 10.125 16.113281 12.144531 16.113281 13.71875 L 16.113281 20.324219 Z M 20.320312 20.324219 "/>
<path style=" stroke:none;fill-rule:nonzero;fill:rgb(100%,100%,100%);fill-opacity:1;" d="M 0.335938 6.753906 L 4.550781 6.753906 L 4.550781 20.324219 L 0.335938 20.324219 Z M 0.335938 6.753906 "/>
<path style=" stroke:none;fill-rule:nonzero;fill:rgb(100%,100%,100%);fill-opacity:1;" d="M 2.441406 0 C 1.09375 0 0 1.09375 0 2.441406 C 0 3.789062 1.09375 4.902344 2.441406 4.902344 C 3.789062 4.902344 4.878906 3.789062 4.878906 2.441406 C 4.878906 1.09375 3.789062 0 2.441406 0 Z M 2.441406 0 "/>
</g>
</svg>
