<?xml version="1.0" encoding="UTF-8"?>
<svg xmlns="http://www.w3.org/2000/svg" xmlns:xlink="http://www.w3.org/1999/xlink" width="25pt" height="25pt" viewBox="0 0 25 25" version="1.1">
<g id="surface1">
<path style=" stroke:none;fill-rule:nonzero;fill:rgb(100%,100%,100%);fill-opacity:1;" d="M 24.992188 25 L 25 25 L 25 15.832031 C 25 11.34375 24.035156 7.890625 18.789062 7.890625 C 16.269531 7.890625 14.578125 9.273438 13.886719 10.585938 L 13.816406 10.585938 L 13.816406 8.308594 L 8.84375 8.308594 L 8.84375 25 L 14.019531 25 L 14.019531 16.734375 C 14.019531 14.558594 14.433594 12.453125 17.128906 12.453125 C 19.78125 12.453125 19.820312 14.9375 19.820312 16.875 L 19.820312 25 Z M 24.992188 25 "/>
<path style=" stroke:none;fill-rule:nonzero;fill:rgb(100%,100%,100%);fill-opacity:1;" d="M 0.414062 8.308594 L 5.597656 8.308594 L 5.597656 25 L 0.414062 25 Z M 0.414062 8.308594 "/>
<path style=" stroke:none;fill-rule:nonzero;fill:rgb(100%,100%,100%);fill-opacity:1;" d="M 3.003906 0 C 1.34375 0 0 1.34375 0 3.003906 C 0 4.660156 1.34375 6.03125 3.003906 6.03125 C 4.660156 6.03125 6.003906 4.660156 6.003906 3.003906 C 6.003906 1.34375 4.660156 0 3.003906 0 Z M 3.003906 0 "/>
</g>
</svg>
