<?xml version="1.0" encoding="UTF-8"?>
<svg xmlns="http://www.w3.org/2000/svg" xmlns:xlink="http://www.w3.org/1999/xlink" width="25pt" height="25pt" viewBox="0 0 25 25" version="1.1">
<g id="surface1">
<path style=" stroke:none;fill-rule:nonzero;fill:rgb(100%,100%,100%);fill-opacity:1;" d="M 0.523438 4.644531 C 3.953125 7.550781 9.972656 12.664062 11.742188 14.257812 C 11.980469 14.472656 12.234375 14.582031 12.5 14.582031 C 12.765625 14.582031 13.019531 14.472656 13.253906 14.261719 C 15.027344 12.664062 21.046875 7.550781 24.476562 4.644531 C 24.691406 4.464844 24.722656 4.148438 24.550781 3.925781 C 24.152344 3.417969 23.554688 3.125 22.917969 3.125 L 2.082031 3.125 C 1.445312 3.125 0.847656 3.417969 0.449219 3.925781 C 0.277344 4.148438 0.308594 4.464844 0.523438 4.644531 Z M 0.523438 4.644531 "/>
<path style=" stroke:none;fill-rule:nonzero;fill:rgb(100%,100%,100%);fill-opacity:1;" d="M 24.699219 6.222656 C 24.511719 6.136719 24.296875 6.164062 24.140625 6.296875 C 20.335938 9.523438 15.480469 13.65625 13.953125 15.035156 C 13.09375 15.808594 11.90625 15.808594 11.046875 15.03125 C 9.417969 13.566406 3.964844 8.929688 0.859375 6.296875 C 0.703125 6.164062 0.484375 6.136719 0.300781 6.222656 C 0.117188 6.304688 0 6.492188 0 6.695312 L 0 19.792969 C 0 20.941406 0.933594 21.875 2.082031 21.875 L 22.917969 21.875 C 24.066406 21.875 25 20.941406 25 19.792969 L 25 6.695312 C 25 6.492188 24.882812 6.304688 24.699219 6.222656 Z M 24.699219 6.222656 "/>
</g>
</svg>
