<?xml version="1.0" encoding="UTF-8"?>
<svg xmlns="http://www.w3.org/2000/svg" xmlns:xlink="http://www.w3.org/1999/xlink" width="25pt" height="25pt" viewBox="0 0 25 25" version="1.1">
<g id="surface1">
<path style=" stroke:none;fill-rule:nonzero;fill:rgb(100%,100%,100%);fill-opacity:1;" d="M 22.429688 7.410156 C 23.449219 6.6875 24.304688 5.785156 25 4.75 L 25 4.746094 C 24.070312 5.15625 23.082031 5.425781 22.046875 5.558594 C 23.109375 4.921875 23.921875 3.925781 24.300781 2.726562 C 23.3125 3.316406 22.21875 3.730469 21.050781 3.964844 C 20.113281 2.964844 18.769531 2.34375 17.308594 2.34375 C 14.472656 2.34375 12.1875 4.648438 12.1875 7.46875 C 12.1875 7.875 12.222656 8.265625 12.304688 8.636719 C 8.042969 8.429688 4.273438 6.386719 1.742188 3.277344 C 1.300781 4.042969 1.039062 4.921875 1.039062 5.867188 C 1.039062 7.644531 1.953125 9.214844 3.316406 10.128906 C 2.492188 10.113281 1.683594 9.871094 1 9.496094 L 1 9.550781 C 1 12.042969 2.777344 14.113281 5.105469 14.589844 C 4.6875 14.703125 4.234375 14.757812 3.761719 14.757812 C 3.433594 14.757812 3.101562 14.738281 2.792969 14.667969 C 3.457031 16.699219 5.339844 18.191406 7.582031 18.242188 C 5.835938 19.605469 3.621094 20.425781 1.226562 20.425781 C 0.804688 20.425781 0.402344 20.40625 0 20.355469 C 2.269531 21.820312 4.960938 22.65625 7.863281 22.65625 C 16.90625 22.65625 22.800781 15.109375 22.429688 7.410156 Z M 22.429688 7.410156 "/>
</g>
</svg>
