<?xml version="1.0" encoding="UTF-8"?>
<svg xmlns="http://www.w3.org/2000/svg" xmlns:xlink="http://www.w3.org/1999/xlink" width="20pt" height="20pt" viewBox="0 0 20 20" version="1.1">
<g id="surface1">
<path style=" stroke:none;fill-rule:nonzero;fill:rgb(100%,100%,100%);fill-opacity:1;" d="M 18.234375 6.023438 C 19.0625 5.4375 19.757812 4.703125 20.324219 3.863281 L 20.324219 3.859375 C 19.570312 4.191406 18.765625 4.410156 17.925781 4.515625 C 18.789062 4 19.445312 3.191406 19.753906 2.21875 C 18.953125 2.695312 18.0625 3.035156 17.113281 3.222656 C 16.351562 2.410156 15.257812 1.90625 14.070312 1.90625 C 11.765625 1.90625 9.90625 3.78125 9.90625 6.070312 C 9.90625 6.402344 9.9375 6.71875 10 7.023438 C 6.539062 6.851562 3.476562 5.191406 1.417969 2.664062 C 1.058594 3.285156 0.84375 4 0.84375 4.769531 C 0.84375 6.214844 1.585938 7.492188 2.695312 8.234375 C 2.027344 8.222656 1.367188 8.023438 0.8125 7.722656 L 0.8125 7.765625 C 0.8125 9.789062 2.257812 11.472656 4.152344 11.859375 C 3.8125 11.953125 3.441406 11.996094 3.058594 11.996094 C 2.792969 11.996094 2.519531 11.980469 2.269531 11.921875 C 2.808594 13.574219 4.339844 14.789062 6.164062 14.832031 C 4.746094 15.9375 2.941406 16.605469 1 16.605469 C 0.65625 16.605469 0.328125 16.589844 0 16.546875 C 1.847656 17.738281 4.03125 18.417969 6.390625 18.417969 C 13.746094 18.417969 18.535156 12.28125 18.234375 6.023438 Z M 18.234375 6.023438 "/>
</g>
</svg>
